<svg width="402" height="40" viewBox="0 0 402 40" fill="none" xmlns="http://www.w3.org/2000/svg">
<path d="M7.992 5.736V32.76H20.952L20.136 39H0.12V5.736H7.992ZM45.3863 39H38.8103L38.4743 35.784C36.6183 38.472 34.0423 39.816 30.7463 39.816C28.4103 39.816 26.6343 39.112 25.4183 37.704C24.2343 36.296 23.6423 34.328 23.6423 31.8V13.512H31.2263V30.84C31.2263 32.088 31.4183 32.968 31.8023 33.48C32.2183 33.96 32.8423 34.2 33.6743 34.2C35.2743 34.2 36.6503 33.208 37.8023 31.224V13.512H45.3863V39ZM62.391 12.696C64.151 12.696 65.735 12.952 67.143 13.464C68.551 13.976 69.879 14.76 71.127 15.816L67.863 20.328C66.263 19.112 64.647 18.504 63.015 18.504C61.319 18.504 60.039 19.128 59.175 20.376C58.311 21.624 57.879 23.64 57.879 26.424C57.879 29.112 58.311 31.016 59.175 32.136C60.039 33.256 61.287 33.816 62.919 33.816C63.783 33.816 64.567 33.688 65.271 33.432C65.975 33.144 66.823 32.696 67.815 32.088L71.127 36.792C68.599 38.808 65.735 39.816 62.535 39.816C59.943 39.816 57.703 39.272 55.815 38.184C53.927 37.064 52.471 35.512 51.447 33.528C50.423 31.512 49.911 29.16 49.911 26.472C49.911 23.784 50.423 21.4 51.447 19.32C52.471 17.24 53.927 15.624 55.815 14.472C57.703 13.288 59.895 12.696 62.391 12.696ZM94.107 31.608C94.107 32.568 94.235 33.272 94.491 33.72C94.779 34.168 95.227 34.504 95.835 34.728L94.251 39.672C92.683 39.544 91.403 39.208 90.411 38.664C89.419 38.088 88.651 37.192 88.107 35.976C86.443 38.536 83.883 39.816 80.427 39.816C77.899 39.816 75.883 39.08 74.379 37.608C72.875 36.136 72.123 34.216 72.123 31.848C72.123 29.064 73.147 26.936 75.195 25.464C77.243 23.992 80.203 23.256 84.075 23.256H86.667V22.152C86.667 20.648 86.347 19.624 85.707 19.08C85.067 18.504 83.947 18.216 82.347 18.216C81.515 18.216 80.507 18.344 79.323 18.6C78.139 18.824 76.923 19.144 75.675 19.56L73.947 14.568C75.547 13.96 77.179 13.496 78.843 13.176C80.539 12.856 82.107 12.696 83.547 12.696C87.195 12.696 89.867 13.448 91.563 14.952C93.259 16.456 94.107 18.712 94.107 21.72V31.608ZM82.635 34.392C84.363 34.392 85.707 33.576 86.667 31.944V27.432H84.795C83.067 27.432 81.771 27.736 80.907 28.344C80.075 28.952 79.659 29.896 79.659 31.176C79.659 32.2 79.915 33 80.427 33.576C80.971 34.12 81.707 34.392 82.635 34.392ZM108.655 12.696C110.479 12.696 112.191 12.968 113.791 13.512C115.391 14.056 116.799 14.824 118.015 15.816L115.231 20.088C113.151 18.776 111.055 18.12 108.943 18.12C107.951 18.12 107.183 18.296 106.639 18.648C106.127 18.968 105.871 19.432 105.871 20.04C105.871 20.52 105.983 20.92 106.207 21.24C106.463 21.528 106.959 21.832 107.695 22.152C108.431 22.472 109.567 22.856 111.103 23.304C113.759 24.072 115.727 25.08 117.007 26.328C118.319 27.544 118.975 29.24 118.975 31.416C118.975 33.144 118.479 34.648 117.487 35.928C116.495 37.176 115.135 38.136 113.407 38.808C111.679 39.48 109.759 39.816 107.647 39.816C105.503 39.816 103.503 39.48 101.647 38.808C99.8231 38.136 98.2711 37.208 96.9911 36.024L100.687 31.896C102.831 33.56 105.087 34.392 107.455 34.392C108.607 34.392 109.503 34.184 110.143 33.768C110.815 33.352 111.151 32.76 111.151 31.992C111.151 31.384 111.023 30.904 110.767 30.552C110.511 30.2 110.015 29.88 109.279 29.592C108.543 29.272 107.375 28.888 105.775 28.44C103.247 27.704 101.359 26.68 100.111 25.368C98.8631 24.056 98.2391 22.424 98.2391 20.472C98.2391 19 98.6551 17.688 99.4871 16.536C100.351 15.352 101.567 14.424 103.135 13.752C104.735 13.048 106.575 12.696 108.655 12.696ZM142.289 5.736V32.76H155.249L154.433 39H134.417V5.736H142.289ZM179.888 25.752C179.888 26.808 179.84 27.72 179.744 28.488H163.952C164.208 30.632 164.816 32.136 165.776 33C166.736 33.864 168.064 34.296 169.76 34.296C170.784 34.296 171.776 34.12 172.736 33.768C173.696 33.384 174.736 32.808 175.856 32.04L178.976 36.264C176 38.632 172.688 39.816 169.04 39.816C164.912 39.816 161.744 38.6 159.536 36.168C157.328 33.736 156.224 30.472 156.224 26.376C156.224 23.784 156.688 21.464 157.616 19.416C158.544 17.336 159.904 15.704 161.696 14.52C163.488 13.304 165.632 12.696 168.128 12.696C171.808 12.696 174.688 13.848 176.768 16.152C178.848 18.456 179.888 21.656 179.888 25.752ZM172.448 23.592C172.384 19.688 171.008 17.736 168.32 17.736C167.008 17.736 165.984 18.216 165.248 19.176C164.544 20.136 164.112 21.72 163.952 23.928H172.448V23.592ZM203.935 31.608C203.935 32.568 204.063 33.272 204.319 33.72C204.607 34.168 205.055 34.504 205.663 34.728L204.079 39.672C202.511 39.544 201.231 39.208 200.239 38.664C199.247 38.088 198.479 37.192 197.935 35.976C196.271 38.536 193.711 39.816 190.255 39.816C187.727 39.816 185.711 39.08 184.207 37.608C182.703 36.136 181.951 34.216 181.951 31.848C181.951 29.064 182.975 26.936 185.023 25.464C187.071 23.992 190.031 23.256 193.903 23.256H196.495V22.152C196.495 20.648 196.175 19.624 195.535 19.08C194.895 18.504 193.775 18.216 192.175 18.216C191.343 18.216 190.335 18.344 189.151 18.6C187.967 18.824 186.751 19.144 185.503 19.56L183.775 14.568C185.375 13.96 187.007 13.496 188.671 13.176C190.367 12.856 191.935 12.696 193.375 12.696C197.023 12.696 199.695 13.448 201.391 14.952C203.087 16.456 203.935 18.712 203.935 21.72V31.608ZM192.463 34.392C194.191 34.392 195.535 33.576 196.495 31.944V27.432H194.623C192.895 27.432 191.599 27.736 190.735 28.344C189.903 28.952 189.487 29.896 189.487 31.176C189.487 32.2 189.743 33 190.255 33.576C190.799 34.12 191.535 34.392 192.463 34.392ZM216.275 39.816C214.067 39.816 212.339 39.192 211.091 37.944C209.875 36.664 209.267 34.856 209.267 32.52V3.384L216.851 2.568V32.232C216.851 33.288 217.283 33.816 218.147 33.816C218.595 33.816 219.011 33.736 219.395 33.576L220.883 38.952C219.507 39.528 217.971 39.816 216.275 39.816ZM257.996 3.384V39H251.276L250.892 36.024C249.1 38.552 246.684 39.816 243.644 39.816C240.476 39.816 238.06 38.6 236.396 36.168C234.764 33.736 233.948 30.408 233.948 26.184C233.948 23.592 234.38 21.272 235.244 19.224C236.108 17.176 237.324 15.576 238.892 14.424C240.492 13.272 242.316 12.696 244.364 12.696C246.796 12.696 248.812 13.496 250.412 15.096V2.568L257.996 3.384ZM245.996 34.248C247.756 34.248 249.228 33.288 250.412 31.368V20.376C249.804 19.64 249.18 19.096 248.54 18.744C247.932 18.392 247.228 18.216 246.428 18.216C245.02 18.216 243.9 18.872 243.068 20.184C242.236 21.496 241.82 23.512 241.82 26.232C241.82 29.208 242.172 31.288 242.876 32.472C243.612 33.656 244.652 34.248 245.996 34.248ZM284.185 31.608C284.185 32.568 284.313 33.272 284.569 33.72C284.857 34.168 285.305 34.504 285.913 34.728L284.329 39.672C282.761 39.544 281.481 39.208 280.489 38.664C279.497 38.088 278.729 37.192 278.185 35.976C276.521 38.536 273.961 39.816 270.505 39.816C267.977 39.816 265.961 39.08 264.457 37.608C262.953 36.136 262.201 34.216 262.201 31.848C262.201 29.064 263.225 26.936 265.273 25.464C267.321 23.992 270.281 23.256 274.153 23.256H276.745V22.152C276.745 20.648 276.425 19.624 275.785 19.08C275.145 18.504 274.025 18.216 272.425 18.216C271.593 18.216 270.585 18.344 269.401 18.6C268.217 18.824 267.001 19.144 265.753 19.56L264.025 14.568C265.625 13.96 267.257 13.496 268.921 13.176C270.617 12.856 272.185 12.696 273.625 12.696C277.273 12.696 279.945 13.448 281.641 14.952C283.337 16.456 284.185 18.712 284.185 21.72V31.608ZM272.713 34.392C274.441 34.392 275.785 33.576 276.745 31.944V27.432H274.873C273.145 27.432 271.849 27.736 270.985 28.344C270.153 28.952 269.737 29.896 269.737 31.176C269.737 32.2 269.993 33 270.505 33.576C271.049 34.12 271.785 34.392 272.713 34.392ZM312.465 4.92C314.961 4.92 317.121 5.272 318.945 5.976C320.801 6.68 322.481 7.752 323.985 9.192L320.337 13.464C318.065 11.608 315.633 10.68 313.041 10.68C311.665 10.68 310.577 10.968 309.777 11.544C308.977 12.088 308.577 12.888 308.577 13.944C308.577 14.68 308.753 15.288 309.105 15.768C309.457 16.216 310.081 16.648 310.977 17.064C311.873 17.48 313.217 17.976 315.009 18.552C318.401 19.64 320.897 20.984 322.497 22.584C324.097 24.152 324.897 26.392 324.897 29.304C324.897 31.384 324.369 33.224 323.313 34.824C322.257 36.392 320.737 37.624 318.753 38.52C316.769 39.384 314.417 39.816 311.697 39.816C308.977 39.816 306.561 39.384 304.449 38.52C302.369 37.656 300.577 36.504 299.073 35.064L303.057 30.696C304.337 31.784 305.649 32.6 306.993 33.144C308.369 33.688 309.857 33.96 311.457 33.96C313.089 33.96 314.369 33.608 315.297 32.904C316.257 32.168 316.737 31.16 316.737 29.88C316.737 29.048 316.561 28.36 316.209 27.816C315.857 27.24 315.249 26.728 314.385 26.28C313.521 25.832 312.273 25.352 310.641 24.84C306.961 23.72 304.337 22.344 302.769 20.712C301.233 19.08 300.465 17.016 300.465 14.52C300.465 12.6 300.977 10.92 302.001 9.48C303.025 8.008 304.449 6.888 306.273 6.12C308.097 5.32 310.161 4.92 312.465 4.92ZM336.669 13.512V39H329.085V13.512H336.669ZM332.829 0.0719976C334.141 0.0719976 335.213 0.487998 336.045 1.32C336.909 2.12 337.341 3.144 337.341 4.392C337.341 5.64 336.909 6.68 336.045 7.512C335.213 8.312 334.141 8.712 332.829 8.712C331.517 8.712 330.445 8.312 329.613 7.512C328.781 6.68 328.365 5.64 328.365 4.392C328.365 3.144 328.781 2.12 329.613 1.32C330.445 0.487998 331.517 0.0719976 332.829 0.0719976ZM349.4 39.816C347.192 39.816 345.464 39.192 344.216 37.944C343 36.664 342.392 34.856 342.392 32.52V3.384L349.976 2.568V32.232C349.976 33.288 350.408 33.816 351.272 33.816C351.72 33.816 352.136 33.736 352.52 33.576L354.008 38.952C352.632 39.528 351.096 39.816 349.4 39.816ZM378.35 13.512L370.334 39H361.358L353.149 13.512H361.406L365.918 33.24L370.622 13.512H378.35ZM400.201 31.608C400.201 32.568 400.329 33.272 400.585 33.72C400.873 34.168 401.321 34.504 401.929 34.728L400.345 39.672C398.777 39.544 397.497 39.208 396.505 38.664C395.513 38.088 394.745 37.192 394.201 35.976C392.537 38.536 389.977 39.816 386.521 39.816C383.993 39.816 381.977 39.08 380.473 37.608C378.969 36.136 378.217 34.216 378.217 31.848C378.217 29.064 379.241 26.936 381.289 25.464C383.337 23.992 386.297 23.256 390.169 23.256H392.761V22.152C392.761 20.648 392.441 19.624 391.801 19.08C391.161 18.504 390.041 18.216 388.441 18.216C387.609 18.216 386.601 18.344 385.417 18.6C384.233 18.824 383.017 19.144 381.769 19.56L380.041 14.568C381.641 13.96 383.273 13.496 384.937 13.176C386.633 12.856 388.201 12.696 389.641 12.696C393.289 12.696 395.961 13.448 397.657 14.952C399.353 16.456 400.201 18.712 400.201 21.72V31.608ZM388.729 34.392C390.457 34.392 391.801 33.576 392.761 31.944V27.432H390.889C389.161 27.432 387.865 27.736 387.001 28.344C386.169 28.952 385.753 29.896 385.753 31.176C385.753 32.2 386.009 33 386.521 33.576C387.065 34.12 387.801 34.392 388.729 34.392Z" fill="#141414"/>
</svg>
